<svg width="50" height="50" fill="none" xmlns="http://www.w3.org/2000/svg"><g clip-path="url(#a)"><path d="M48 24a24 24 0 1 1-48 0 24 24 0 0 1 48 0Zm-23.14-6.282c-2.333.972-7.001 2.982-13.997 6.03-1.134.45-1.731.894-1.785 1.326-.09.729.825 1.017 2.07 1.41l.525.165c1.224.399 2.874.864 3.729.882.78.018 1.647-.3 2.604-.96 6.537-4.413 9.912-6.642 10.122-6.69.15-.036.36-.078.498.048.14.123.126.36.11.423-.09.387-3.68 3.723-5.537 5.451-.58.54-.99.921-1.074 1.008-.185.189-.373.375-.564.558-1.14 1.098-1.992 1.92.045 3.264.98.648 1.767 1.179 2.55 1.713.852.582 1.704 1.161 2.808 1.887.279.18.549.375.81.561.993.708 1.89 1.344 2.99 1.242.643-.06 1.306-.66 1.642-2.46.795-4.251 2.358-13.458 2.718-17.253a4.281 4.281 0 0 0-.04-.945 1.011 1.011 0 0 0-.341-.651 1.578 1.578 0 0 0-.93-.279c-.9.015-2.29.498-8.952 3.27Z" fill="#fff"/></g><defs><clipPath id="a"><path fill="#fff" d="M0 0h50v50H0z"/></clipPath></defs></svg>