<svg width="20" height="20" fill="none" xmlns="http://www.w3.org/2000/svg"><path d="M.417 3.717c2.745 2.325 7.562 6.414 8.977 7.69.19.172.394.26.606.26.211 0 .415-.087.604-.259 1.417-1.276 6.233-5.366 8.979-7.691a.416.416 0 0 0 .058-.575 1.655 1.655 0 0 0-1.308-.642H1.667c-.511 0-.988.234-1.308.642a.416.416 0 0 0 .058.575Z" fill="#CD06FF"/><path d="M19.758 4.977a.415.415 0 0 0-.444.06c-3.044 2.58-6.93 5.888-8.152 6.99-.686.62-1.638.62-2.325-.001C7.534 10.852 3.17 7.143.686 5.037A.417.417 0 0 0 0 5.355v10.478c0 .92.747 1.667 1.667 1.667h16.666c.92 0 1.667-.747 1.667-1.667V5.355a.416.416 0 0 0-.242-.378Z" fill="#CD06FF"/></svg>