<svg width="26" height="26" fill="none" xmlns="http://www.w3.org/2000/svg"><path d="M.543 4.832c3.568 3.022 9.83 8.339 11.67 9.997.247.223.512.337.787.337.274 0 .539-.113.786-.335 1.841-1.66 8.103-6.977 11.671-9.999a.541.541 0 0 0 .076-.747 2.151 2.151 0 0 0-1.7-.835H2.167a2.15 2.15 0 0 0-1.7.835c-.18.23-.146.56.076.747Z" fill="#CD06FF"/><path d="M25.686 6.47a.54.54 0 0 0-.578.078c-3.957 3.355-9.008 7.655-10.597 9.087-.892.805-2.13.805-3.023-.001C9.794 14.108 4.122 9.286.892 6.548A.542.542 0 0 0 0 6.961v13.622c0 1.195.972 2.167 2.167 2.167h21.666A2.169 2.169 0 0 0 26 20.583V6.961a.541.541 0 0 0-.314-.491Z" fill="#CD06FF"/></svg>