<svg width="32" height="32" fill="none" xmlns="http://www.w3.org/2000/svg"><path d="M.668 5.947C5.06 9.667 12.766 16.21 15.031 18.251c.304.275.63.415.969.415.338 0 .663-.139.967-.413 2.267-2.042 9.973-8.586 14.365-12.306a.666.666 0 0 0 .094-.92A2.648 2.648 0 0 0 29.333 4H2.667c-.818 0-1.581.374-2.093 1.027a.666.666 0 0 0 .094.92Z" fill="#CD06FF"/><path d="M31.613 7.963a.664.664 0 0 0-.71.096c-4.871 4.129-11.087 9.421-13.043 11.184-1.098.99-2.621.99-3.721-.002C12.054 17.363 5.073 11.43 1.098 8.06A.667.667 0 0 0 0 8.568v16.765A2.67 2.67 0 0 0 2.667 28h26.666A2.67 2.67 0 0 0 32 25.333V8.568a.666.666 0 0 0-.387-.605Z" fill="#CD06FF"/></svg>