<svg width="26" height="26" fill="none" xmlns="http://www.w3.org/2000/svg"><path stroke="#000" d="M.5.5h25v25H.5z"/><path d="M13 0C8.431 0 4.621 3.68 4.621 8.379c0 1.787.537 3.382 1.568 4.875l6.17 9.627c.3.468.983.467 1.282 0l6.197-9.66a8.342 8.342 0 0 0 1.54-4.842C21.379 3.759 17.62 0 13 0Zm0 12.188a3.813 3.813 0 0 1-3.809-3.81C9.191 6.28 10.9 4.57 13 4.57s3.809 1.709 3.809 3.809S15.1 12.188 13 12.188Z" fill="#CD06FF"/><path d="m18.955 17.504-3.836 5.997c-.993 1.547-3.251 1.543-4.239.001l-3.842-5.996c-3.38.781-5.464 2.213-5.464 3.924C1.574 24.398 7.461 26 13 26c5.539 0 11.426-1.602 11.426-4.57 0-1.712-2.087-3.145-5.471-3.926Z" fill="#CD06FF"/></svg>