<svg width="20" height="20" fill="none" xmlns="http://www.w3.org/2000/svg"><path d="M10 0C6.486 0 3.555 2.83 3.555 6.445c0 1.375.413 2.602 1.206 3.75l4.746 7.406c.23.36.757.36.986 0l4.767-7.43a6.417 6.417 0 0 0 1.185-3.726A6.453 6.453 0 0 0 10 0Zm0 9.375a2.933 2.933 0 0 1-2.93-2.93A2.933 2.933 0 0 1 10 3.515a2.933 2.933 0 0 1 2.93 2.93A2.933 2.933 0 0 1 10 9.375Z" fill="#CD06FF"/><path d="m14.58 13.465-2.95 4.612a1.937 1.937 0 0 1-3.26.001l-2.956-4.612c-2.6.601-4.203 1.702-4.203 3.018C1.21 18.768 5.739 20 10 20c4.26 0 8.79-1.232 8.79-3.516 0-1.317-1.606-2.419-4.21-3.02Z" fill="#CD06FF"/></svg>