<svg width="20" height="20" fill="none" xmlns="http://www.w3.org/2000/svg"><path d="M16.667 9.166h1.666c0-4.275-3.227-7.5-7.508-7.5v1.667c3.385 0 5.842 2.453 5.842 5.833Z" fill="#CD06FF"/><path d="M10.833 6.667c1.753 0 2.5.747 2.5 2.5H15C15 6.479 13.52 5 10.833 5v1.667Zm2.852 4.536a.834.834 0 0 0-1.16.035l-1.993 2.051c-.48-.091-1.445-.392-2.439-1.383C7.1 10.912 6.8 9.944 6.71 9.467l2.05-1.995a.833.833 0 0 0 .035-1.159l-3.08-3.385a.833.833 0 0 0-1.158-.073l-1.809 1.55a.833.833 0 0 0-.241.542c-.013.208-.251 5.143 3.575 8.971 3.339 3.338 7.52 3.582 8.672 3.582.168 0 .272-.005.3-.007a.827.827 0 0 0 .54-.242l1.55-1.81a.834.834 0 0 0-.072-1.159l-3.387-3.08Z" fill="#CD06FF"/></svg>