<svg width="26" height="26" fill="none" xmlns="http://www.w3.org/2000/svg"><path d="M21.667 11.916h2.166c0-5.558-4.195-9.75-9.76-9.75v2.167c4.4 0 7.594 3.189 7.594 7.583Z" fill="#CD06FF"/><path d="M14.083 8.667c2.279 0 3.25.971 3.25 3.25H19.5c0-3.494-1.923-5.417-5.417-5.417v2.167Zm3.708 5.896a1.084 1.084 0 0 0-1.507.047l-2.593 2.666c-.624-.12-1.878-.51-3.17-1.799-1.29-1.292-1.682-2.55-1.798-3.17l2.664-2.593a1.084 1.084 0 0 0 .047-1.507L7.43 3.806a1.083 1.083 0 0 0-1.507-.095L3.573 5.728c-.187.187-.3.438-.314.703-.017.27-.326 6.686 4.648 11.663 4.34 4.338 9.776 4.656 11.273 4.656.22 0 .354-.007.39-.009.264-.015.514-.127.701-.315l2.015-2.352a1.084 1.084 0 0 0-.093-1.507l-4.402-4.004Z" fill="#CD06FF"/></svg>